solid MATLAB_1
facet normal 1 0 -0
  outer loop
   vertex 1 8 -2.5
   vertex 1 8 2
   vertex 1 0 -2.5
  endloop
 endfacet
facet normal 1 0 0
  outer loop
   vertex 1 0 -2.5
   vertex 1 8 2
   vertex 1 0 2
  endloop
 endfacet
facet normal -1 0 0
  outer loop
   vertex 0 0 -2.5
   vertex 0 0 2
   vertex 0 8 -2.5
  endloop
 endfacet
facet normal -1 0 0
  outer loop
   vertex 0 8 -2.5
   vertex 0 0 2
   vertex 0 8 2
  endloop
 endfacet
facet normal 0 0 1
  outer loop
   vertex 1 8 2
   vertex 0 8 2
   vertex 1 0 2
  endloop
 endfacet
facet normal 0 0 1
  outer loop
   vertex 1 0 2
   vertex 0 8 2
   vertex 0 0 2
  endloop
 endfacet
facet normal 0 1 0
  outer loop
   vertex 0 8 -2.5
   vertex 0 8 2
   vertex 1 8 -2.5
  endloop
 endfacet
facet normal 0 1 -0
  outer loop
   vertex 1 8 -2.5
   vertex 0 8 2
   vertex 1 8 2
  endloop
 endfacet
facet normal 0 -1 0
  outer loop
   vertex 1 0 -2.5
   vertex 1 0 2
   vertex 0 0 -2.5
  endloop
 endfacet
facet normal 0 -1 0
  outer loop
   vertex 0 0 -2.5
   vertex 1 0 2
   vertex 0 0 2
  endloop
 endfacet
facet normal 0 0.0871546641 -0.99619478
  outer loop
   vertex 0.5 7.5 -3
   vertex 0.413175911 7.58682394 -2.99240398
   vertex 0.586824059 7.58682394 -2.99240398
  endloop
 endfacet
facet normal 0 0.258815497 -0.965926766
  outer loop
   vertex 0.586824059 7.58682394 -2.99240398
   vertex 0.413175911 7.58682394 -2.99240398
   vertex 0.328989923 7.67101002 -2.96984673
  endloop
 endfacet
facet normal 0 0.258815497 -0.965926766
  outer loop
   vertex 0.586824059 7.58682394 -2.99240398
   vertex 0.328989923 7.67101002 -2.96984673
   vertex 0.671010077 7.67101002 -2.96984673
  endloop
 endfacet
facet normal 0 0.422619492 -0.90630722
  outer loop
   vertex 0.671010077 7.67101002 -2.96984673
   vertex 0.328989923 7.67101002 -2.96984673
   vertex 0.25 7.75 -2.93301296
  endloop
 endfacet
facet normal 0 0.422619492 -0.90630722
  outer loop
   vertex 0.671010077 7.67101002 -2.96984673
   vertex 0.25 7.75 -2.93301296
   vertex 0.75 7.75 -2.93301296
  endloop
 endfacet
facet normal 0 0.573576927 -0.8191517
  outer loop
   vertex 0.75 7.75 -2.93301296
   vertex 0.25 7.75 -2.93301296
   vertex 0.178606197 7.82139397 -2.88302231
  endloop
 endfacet
facet normal 0 0.573576927 -0.8191517
  outer loop
   vertex 0.75 7.75 -2.93301296
   vertex 0.178606197 7.82139397 -2.88302231
   vertex 0.821393788 7.82139397 -2.88302231
  endloop
 endfacet
facet normal 0 0.707106769 -0.707106769
  outer loop
   vertex 0.821393788 7.82139397 -2.88302231
   vertex 0.178606197 7.82139397 -2.88302231
   vertex 0.116977781 7.88302231 -2.82139397
  endloop
 endfacet
facet normal 0 0.707106769 -0.707106769
  outer loop
   vertex 0.821393788 7.82139397 -2.88302231
   vertex 0.116977781 7.88302231 -2.82139397
   vertex 0.883022249 7.88302231 -2.82139397
  endloop
 endfacet
facet normal 0 0.793358564 -0.608754635
  outer loop
   vertex 0.883022249 7.88302231 -2.82139397
   vertex 0.116977781 7.88302231 -2.82139397
   vertex 0.909575999 7.90957594 -2.78678799
  endloop
 endfacet
facet normal 0 0.793358564 -0.608754635
  outer loop
   vertex 0.116977781 7.88302231 -2.82139397
   vertex 0.0904239789 7.90957594 -2.78678799
   vertex 0.909575999 7.90957594 -2.78678799
  endloop
 endfacet
facet normal 0 0.843391299 -0.537299812
  outer loop
   vertex 0.909575999 7.90957594 -2.78678799
   vertex 0.0904239789 7.90957594 -2.78678799
   vertex 0.0669872984 7.93301249 -2.75
  endloop
 endfacet
facet normal 0 0.843391299 -0.537299812
  outer loop
   vertex 0.909575999 7.90957594 -2.78678799
   vertex 0.0669872984 7.93301249 -2.75
   vertex 0.933012724 7.93301249 -2.75
  endloop
 endfacet
facet normal 0 0.887005508 -0.461758852
  outer loop
   vertex 0.933012724 7.93301249 -2.75
   vertex 0.0669872984 7.93301249 -2.75
   vertex 0.0468461066 7.95315409 -2.71130943
  endloop
 endfacet
facet normal 0 0.887005508 -0.461758852
  outer loop
   vertex 0.933012724 7.93301249 -2.75
   vertex 0.0468461066 7.95315409 -2.71130943
   vertex 0.953153908 7.95315409 -2.71130943
  endloop
 endfacet
facet normal 0 0.923882782 -0.382675558
  outer loop
   vertex 0.953153908 7.95315409 -2.71130943
   vertex 0.0468461066 7.95315409 -2.71130943
   vertex 0.0301536899 7.96984625 -2.67101002
  endloop
 endfacet
facet normal 0 0.923882782 -0.382675558
  outer loop
   vertex 0.953153908 7.95315409 -2.71130943
   vertex 0.0301536899 7.96984625 -2.67101002
   vertex 0.969846308 7.96984625 -2.67101002
  endloop
 endfacet
facet normal 0 0.953714728 -0.300712794
  outer loop
   vertex 0.969846308 7.96984625 -2.67101002
   vertex 0.0301536899 7.96984625 -2.67101002
   vertex 0.0170370862 7.98296309 -2.62940979
  endloop
 endfacet
facet normal 0 0.953714728 -0.300712794
  outer loop
   vertex 0.969846308 7.96984625 -2.67101002
   vertex 0.0170370862 7.98296309 -2.62940979
   vertex 0.982962906 7.98296309 -2.62940979
  endloop
 endfacet
facet normal 0 0.976296246 -0.216438502
  outer loop
   vertex 0.982962906 7.98296309 -2.62940979
   vertex 0.0170370862 7.98296309 -2.62940979
   vertex 0.0075961235 7.99240398 -2.58682442
  endloop
 endfacet
facet normal 0 0.976296246 -0.216438502
  outer loop
   vertex 0.982962906 7.98296309 -2.62940979
   vertex 0.0075961235 7.99240398 -2.58682442
   vertex 0.992403865 7.99240398 -2.58682442
  endloop
 endfacet
facet normal 0 0.991445005 -0.130525202
  outer loop
   vertex 0.992403865 7.99240398 -2.58682442
   vertex 0.0075961235 7.99240398 -2.58682442
   vertex 0.00190265093 7.99809742 -2.54357815
  endloop
 endfacet
facet normal 0 0.991445005 -0.130525202
  outer loop
   vertex 0.992403865 7.99240398 -2.58682442
   vertex 0.00190265093 7.99809742 -2.54357815
   vertex 0.99809736 7.99809742 -2.54357815
  endloop
 endfacet
facet normal 0 0.999048293 -0.0436174944
  outer loop
   vertex 0.99809736 7.99809742 -2.54357815
   vertex 0.00190265093 7.99809742 -2.54357815
   vertex 0 8 -2.5
  endloop
 endfacet
facet normal 0 0.999048293 -0.0436174944
  outer loop
   vertex 0.99809736 7.99809742 -2.54357815
   vertex 0 8 -2.5
   vertex 1 8 -2.5
  endloop
 endfacet
facet normal 0.0871545449 0 -0.99619478
  outer loop
   vertex 0.5 0.5 -3
   vertex 0.5 7.5 -3
   vertex 0.586824059 7.58682394 -2.99240398
  endloop
 endfacet
facet normal 0.258635581 0.000192982756 -0.965974927
  outer loop
   vertex 0.671010077 7.67101002 -2.96984673
   vertex 0.650735199 0.34926483 -2.97673798
   vertex 0.586824059 7.58682394 -2.99240398
  endloop
 endfacet
facet normal 0.238073751 0 -0.971247077
  outer loop
   vertex 0.586824059 7.58682394 -2.99240398
   vertex 0.650735199 0.34926483 -2.97673798
   vertex 0.586824059 0.413175911 -2.99240398
  endloop
 endfacet
facet normal 0.0871545449 0 -0.99619478
  outer loop
   vertex 0.586824059 7.58682394 -2.99240398
   vertex 0.586824059 0.413175911 -2.99240398
   vertex 0.5 0.5 -3
  endloop
 endfacet
facet normal 0.422430813 0.000229971614 -0.906395137
  outer loop
   vertex 0.75 7.75 -2.93301296
   vertex 0.723722577 0.276277423 -2.94715595
   vertex 0.671010077 7.67101002 -2.96984673
  endloop
 endfacet
facet normal 0.395386517 0 -0.918514848
  outer loop
   vertex 0.671010077 7.67101002 -2.96984673
   vertex 0.723722577 0.276277423 -2.94715595
   vertex 0.671010077 0.328989923 -2.96984673
  endloop
 endfacet
facet normal 0.321810305 0 -0.946804166
  outer loop
   vertex 0.671010077 7.67101002 -2.96984673
   vertex 0.671010077 0.328989923 -2.96984673
   vertex 0.650735199 0.34926483 -2.97673798
  endloop
 endfacet
facet normal 0.573411942 0.000247196207 -0.819267154
  outer loop
   vertex 0.821393788 7.82139397 -2.88302231
   vertex 0.791169941 0.208830088 -2.90647316
   vertex 0.75 7.75 -2.93301296
  endloop
 endfacet
facet normal 0.541817605 0 -0.840496063
  outer loop
   vertex 0.75 7.75 -2.93301296
   vertex 0.791169941 0.208830088 -2.90647316
   vertex 0.75 0.25 -2.93301296
  endloop
 endfacet
facet normal 0.473933786 0 -0.880560517
  outer loop
   vertex 0.75 7.75 -2.93301296
   vertex 0.75 0.25 -2.93301296
   vertex 0.723722577 0.276277423 -2.94715595
  endloop
 endfacet
facet normal 0.786846638 0 -0.617148578
  outer loop
   vertex 0.903397679 0.0966023207 -2.79541588
   vertex 0.883022249 0.116977781 -2.82139397
   vertex 0.883022249 7.88302231 -2.82139397
  endloop
 endfacet
facet normal 0.735251844 0 -0.67779398
  outer loop
   vertex 0.883022249 7.88302231 -2.82139397
   vertex 0.883022249 0.116977781 -2.82139397
   vertex 0.851435363 0.148564652 -2.85565853
  endloop
 endfacet
facet normal 0.706983149 0.000245853676 -0.707230389
  outer loop
   vertex 0.883022249 7.88302231 -2.82139397
   vertex 0.851435363 0.148564652 -2.85565853
   vertex 0.821393788 7.82139397 -2.88302231
  endloop
 endfacet
facet normal 0.673390031 0 -0.739287436
  outer loop
   vertex 0.821393788 7.82139397 -2.88302231
   vertex 0.851435363 0.148564652 -2.85565853
   vertex 0.821393788 0.178606197 -2.88302231
  endloop
 endfacet
facet normal 0.613018572 0 -0.790068507
  outer loop
   vertex 0.821393788 7.82139397 -2.88302231
   vertex 0.821393788 0.178606197 -2.88302231
   vertex 0.791169941 0.208830088 -2.90647316
  endloop
 endfacet
facet normal 0.976307213 -0.000241081929 -0.216388851
  outer loop
   vertex 0.992403865 7.99240398 -2.58682442
   vertex 0.975236177 0.0247638281 -2.65540504
   vertex 0.982962906 7.98296309 -2.62940979
  endloop
 endfacet
facet normal 0.94522357 0.000148523221 -0.326423585
  outer loop
   vertex 0.982962906 7.98296309 -2.62940979
   vertex 0.975236177 0.0247638281 -2.65540504
   vertex 0.969846308 0.0301536899 -2.67101002
  endloop
 endfacet
facet normal 0.953716338 0 -0.300707817
  outer loop
   vertex 0.982962906 7.98296309 -2.62940979
   vertex 0.969846308 0.0301536899 -2.67101002
   vertex 0.969846308 7.96984625 -2.67101002
  endloop
 endfacet
facet normal 0.916496575 0 -0.400042534
  outer loop
   vertex 0.969846308 7.96984625 -2.67101002
   vertex 0.969846308 0.0301536899 -2.67101002
   vertex 0.944859684 0.0551403314 -2.72825432
  endloop
 endfacet
facet normal 0.92390275 -0.000149338724 -0.382627398
  outer loop
   vertex 0.969846308 7.96984625 -2.67101002
   vertex 0.944859684 0.0551403314 -2.72825432
   vertex 0.953153908 7.95315409 -2.71130943
  endloop
 endfacet
facet normal 0.878162384 0.000104092425 -0.47836262
  outer loop
   vertex 0.953153908 7.95315409 -2.71130943
   vertex 0.944859684 0.0551403314 -2.72825432
   vertex 0.933012724 0.0669872984 -2.75
  endloop
 endfacet
facet normal 0.887009442 0 -0.461751312
  outer loop
   vertex 0.953153908 7.95315409 -2.71130943
   vertex 0.933012724 0.0669872984 -2.75
   vertex 0.933012724 7.93301249 -2.75
  endloop
 endfacet
facet normal 0.837644398 0 -0.546215951
  outer loop
   vertex 0.933012724 7.93301249 -2.75
   vertex 0.933012724 0.0669872984 -2.75
   vertex 0.903397679 0.0966023207 -2.79541588
  endloop
 endfacet
facet normal 0.843410671 -7.36414586e-05 -0.537269354
  outer loop
   vertex 0.933012724 7.93301249 -2.75
   vertex 0.903397679 0.0966023207 -2.79541588
   vertex 0.909575999 7.90957594 -2.78678799
  endloop
 endfacet
facet normal 0.793340564 4.49200634e-05 -0.608778059
  outer loop
   vertex 0.909575999 7.90957594 -2.78678799
   vertex 0.903397679 0.0966023207 -2.79541588
   vertex 0.883022249 7.88302231 -2.82139397
  endloop
 endfacet
facet normal 0.999219775 0 -0.0394951515
  outer loop
   vertex 1 0 -2.5
   vertex 0.998440146 0.00155987497 -2.539464
   vertex 1 8 -2.5
  endloop
 endfacet
facet normal 0.992990732 0.000389501074 -0.118191808
  outer loop
   vertex 1 8 -2.5
   vertex 0.998440146 0.00155987497 -2.539464
   vertex 0.993770242 0.00622976711 -2.5786829
  endloop
 endfacet
facet normal 0.999048829 -0.000349393697 -0.0436036289
  outer loop
   vertex 1 8 -2.5
   vertex 0.993770242 0.00622976711 -2.5786829
   vertex 0.99809736 7.99809742 -2.54357815
  endloop
 endfacet
facet normal 0.986202359 0.000193193671 -0.165544331
  outer loop
   vertex 0.99809736 7.99809742 -2.54357815
   vertex 0.993770242 0.00622976711 -2.5786829
   vertex 0.992394209 0.00760576315 -2.58687878
  endloop
 endfacet
facet normal 0.991444826 -3.10339288e-07 -0.130526513
  outer loop
   vertex 0.99809736 7.99809742 -2.54357815
   vertex 0.992394209 0.00760576315 -2.58687878
   vertex 0.992403865 7.99240398 -2.58682442
  endloop
 endfacet
facet normal 0.978037834 2.36212742e-07 -0.208427429
  outer loop
   vertex 0.992403865 7.99240398 -2.58682442
   vertex 0.992394209 0.00760576315 -2.58687878
   vertex 0.985033631 0.0149663556 -2.621418
  endloop
 endfacet
facet normal 0.960896492 0.000313032244 -0.276907623
  outer loop
   vertex 0.992403865 7.99240398 -2.58682442
   vertex 0.985033631 0.0149663556 -2.621418
   vertex 0.975236177 0.0247638281 -2.65540504
  endloop
 endfacet
facet normal -0.999048233 0 -0.0436191112
  outer loop
   vertex 0 0 -2.5
   vertex 0 8 -2.5
   vertex 0.00190265093 7.99809742 -2.54357815
  endloop
 endfacet
facet normal -0.999219775 2.25123586e-05 -0.039494805
  outer loop
   vertex 0 0 -2.5
   vertex 0.00190265093 7.99809742 -2.54357815
   vertex 0.00155987497 0.00155987497 -2.539464
  endloop
 endfacet
facet normal -0.991445303 -2.46540585e-05 -0.130522847
  outer loop
   vertex 0.00155987497 0.00155987497 -2.539464
   vertex 0.00190265093 7.99809742 -2.54357815
   vertex 0.0075961235 7.99240398 -2.58682442
  endloop
 endfacet
facet normal -0.991975427 0 -0.12643069
  outer loop
   vertex 0.00155987497 0.00155987497 -2.539464
   vertex 0.0075961235 7.99240398 -2.58682442
   vertex 0.0075961235 0.0075961235 -2.58682442
  endloop
 endfacet
facet normal -0.707109094 -5.51368748e-06 -0.707104445
  outer loop
   vertex 0.116977781 7.88302231 -2.82139397
   vertex 0.178606197 7.82139397 -2.88302231
   vertex 0.178976685 0.178976685 -2.88333321
  endloop
 endfacet
facet normal -0.673788488 0.000518461573 -0.738924086
  outer loop
   vertex 0.178976685 0.178976685 -2.88333321
   vertex 0.148116603 0.148116603 -2.85521507
   vertex 0.116977781 7.88302231 -2.82139397
  endloop
 endfacet
facet normal -0.735319495 3.13848932e-06 -0.677720606
  outer loop
   vertex 0.116977781 7.88302231 -2.82139397
   vertex 0.148116603 0.148116603 -2.85521507
   vertex 0.117319077 0.117319077 -2.82180023
  endloop
 endfacet
facet normal -0.79335779 -3.0201677e-06 -0.608755648
  outer loop
   vertex 0.116977781 7.88302231 -2.82139397
   vertex 0.117319077 0.117319077 -2.82180023
   vertex 0.0904239789 7.90957594 -2.78678799
  endloop
 endfacet
facet normal -0.786541104 5.99682317e-05 -0.617537916
  outer loop
   vertex 0.0904239789 7.90957594 -2.78678799
   vertex 0.117319077 0.117319077 -2.82180023
   vertex 0.0966023207 0.0966023207 -2.79541588
  endloop
 endfacet
facet normal -0.843411148 -7.36450456e-05 -0.537268639
  outer loop
   vertex 0.0904239789 7.90957594 -2.78678799
   vertex 0.0966023207 0.0966023207 -2.79541588
   vertex 0.0669872984 7.93301249 -2.75
  endloop
 endfacet
facet normal -0.837644577 -0 -0.546215653
  outer loop
   vertex 0.0669872984 7.93301249 -2.75
   vertex 0.0966023207 0.0966023207 -2.79541588
   vertex 0.0669872984 0.0669872984 -2.75
  endloop
 endfacet
facet normal -0.887009382 -0 -0.461751461
  outer loop
   vertex 0.0669872984 7.93301249 -2.75
   vertex 0.0669872984 0.0669872984 -2.75
   vertex 0.0468461066 7.95315409 -2.71130943
  endloop
 endfacet
facet normal -0.878162265 0.000104093051 -0.478362858
  outer loop
   vertex 0.0468461066 7.95315409 -2.71130943
   vertex 0.0669872984 0.0669872984 -2.75
   vertex 0.0551403314 0.0551403314 -2.72825432
  endloop
 endfacet
facet normal -0.923902571 -0.000149337866 -0.382627726
  outer loop
   vertex 0.0468461066 7.95315409 -2.71130943
   vertex 0.0551403314 0.0551403314 -2.72825432
   vertex 0.0301536899 7.96984625 -2.67101002
  endloop
 endfacet
facet normal -0.916496456 -0 -0.400042772
  outer loop
   vertex 0.0301536899 7.96984625 -2.67101002
   vertex 0.0551403314 0.0551403314 -2.72825432
   vertex 0.0301536899 0.0301536899 -2.67101002
  endloop
 endfacet
facet normal -0.953716278 -0 -0.300707936
  outer loop
   vertex 0.0301536899 7.96984625 -2.67101002
   vertex 0.0301536899 0.0301536899 -2.67101002
   vertex 0.0170370862 7.98296309 -2.62940979
  endloop
 endfacet
facet normal -0.945175469 0.000149330779 -0.326562911
  outer loop
   vertex 0.0170370862 7.98296309 -2.62940979
   vertex 0.0301536899 0.0301536899 -2.67101002
   vertex 0.024810344 0.024810344 -2.65554714
  endloop
 endfacet
facet normal -0.976307273 -0.0002429288 -0.216388553
  outer loop
   vertex 0.0170370862 7.98296309 -2.62940979
   vertex 0.024810344 0.024810344 -2.65554714
   vertex 0.0075961235 7.99240398 -2.58682442
  endloop
 endfacet
facet normal -0.960854828 0.000313698023 -0.277052253
  outer loop
   vertex 0.0075961235 7.99240398 -2.58682442
   vertex 0.024810344 0.024810344 -2.65554714
   vertex 0.0149663556 0.0149663556 -2.621418
  endloop
 endfacet
facet normal -0.978048921 -0 -0.20837529
  outer loop
   vertex 0.0075961235 7.99240398 -2.58682442
   vertex 0.0149663556 0.0149663556 -2.621418
   vertex 0.0075961235 0.0075961235 -2.58682442
  endloop
 endfacet
facet normal -0.422621936 -2.6860846e-06 -0.906306088
  outer loop
   vertex 0.25 7.75 -2.93301296
   vertex 0.328989923 7.67101002 -2.96984673
   vertex 0.329198152 0.329198152 -2.96992207
  endloop
 endfacet
facet normal -0.395810336 0.000343274587 -0.918332219
  outer loop
   vertex 0.329198152 0.329198152 -2.96992207
   vertex 0.275948793 0.275948793 -2.94699097
   vertex 0.25 7.75 -2.93301296
  endloop
 endfacet
facet normal -0.473930925 1.41348357e-06 -0.880562007
  outer loop
   vertex 0.25 7.75 -2.93301296
   vertex 0.275948793 0.275948793 -2.94699097
   vertex 0.250317842 0.250317842 -2.93319607
  endloop
 endfacet
facet normal -0.573580682 -4.30914542e-06 -0.819149077
  outer loop
   vertex 0.25 7.75 -2.93301296
   vertex 0.250317842 0.250317842 -2.93319607
   vertex 0.178606197 7.82139397 -2.88302231
  endloop
 endfacet
facet normal -0.542259276 0.000431939261 -0.840211093
  outer loop
   vertex 0.178606197 7.82139397 -2.88302231
   vertex 0.250317842 0.250317842 -2.93319607
   vertex 0.208399504 0.208399504 -2.90616417
  endloop
 endfacet
facet normal -0.613047421 2.42032775e-06 -0.790046096
  outer loop
   vertex 0.178606197 7.82139397 -2.88302231
   vertex 0.208399504 0.208399504 -2.90616417
   vertex 0.178976685 0.178976685 -2.88333321
  endloop
 endfacet
facet normal -0.0871545151 0 -0.99619478
  outer loop
   vertex 0.413175911 7.58682394 -2.99240398
   vertex 0.5 7.5 -3
   vertex 0.5 0.5 -3
  endloop
 endfacet
facet normal -0.0743894801 0.000157499409 -0.997229278
  outer loop
   vertex 0.5 0.5 -3
   vertex 0.425974458 0.425974458 -2.99448967
   vertex 0.413175911 7.58682394 -2.99240398
  endloop
 endfacet
facet normal -0.160764024 1.4116975e-07 -0.986992896
  outer loop
   vertex 0.413175911 7.58682394 -2.99240398
   vertex 0.425974458 0.425974458 -2.99448967
   vertex 0.413263291 0.413263291 -2.99241924
  endloop
 endfacet
facet normal -0.258816749 -1.09801078e-06 -0.965926409
  outer loop
   vertex 0.413175911 7.58682394 -2.99240398
   vertex 0.413263291 0.413263291 -2.99241924
   vertex 0.328989923 7.67101002 -2.96984673
  endloop
 endfacet
facet normal -0.238411888 0.000252123165 -0.971164107
  outer loop
   vertex 0.328989923 7.67101002 -2.96984673
   vertex 0.413263291 0.413263291 -2.99241924
   vertex 0.349081248 0.349081248 -2.9766798
  endloop
 endfacet
facet normal -0.321795851 5.89184538e-07 -0.946809053
  outer loop
   vertex 0.328989923 7.67101002 -2.96984673
   vertex 0.349081248 0.349081248 -2.9766798
   vertex 0.329198152 0.329198152 -2.96992207
  endloop
 endfacet
facet normal 0.00650318153 -0.0806970671 -0.996717453
  outer loop
   vertex 0.5 0.5 -3
   vertex 0.586824059 0.413175911 -2.99240398
   vertex 0.425974458 0.425974458 -2.99448967
  endloop
 endfacet
facet normal 5.83191422e-06 -0.160769567 -0.986991942
  outer loop
   vertex 0.425974458 0.425974458 -2.99448967
   vertex 0.586824059 0.413175911 -2.99240398
   vertex 0.413263291 0.413263291 -2.99241924
  endloop
 endfacet
facet normal -3.44888467e-05 -0.238106489 -0.97123903
  outer loop
   vertex 0.413263291 0.413263291 -2.99241924
   vertex 0.586824059 0.413175911 -2.99240398
   vertex 0.650735199 0.34926483 -2.97673798
  endloop
 endfacet
facet normal -4.23776582e-05 -0.238134101 -0.971232295
  outer loop
   vertex 0.413263291 0.413263291 -2.99241924
   vertex 0.650735199 0.34926483 -2.97673798
   vertex 0.349081248 0.349081248 -2.9766798
  endloop
 endfacet
facet normal -0 -0.786518276 -0.617567062
  outer loop
   vertex 0.903397679 0.0966023207 -2.79541588
   vertex 0.0966023207 0.0966023207 -2.79541588
   vertex 0.117319077 0.117319077 -2.82180023
  endloop
 endfacet
facet normal 1.32553687e-05 -0.321807206 -0.946805239
  outer loop
   vertex 0.349081248 0.349081248 -2.9766798
   vertex 0.650735199 0.34926483 -2.97673798
   vertex 0.329198152 0.329198152 -2.96992207
  endloop
 endfacet
facet normal 1.26533005e-05 -0.321798563 -0.946808159
  outer loop
   vertex 0.329198152 0.329198152 -2.96992207
   vertex 0.650735199 0.34926483 -2.97673798
   vertex 0.671010077 0.328989923 -2.96984673
  endloop
 endfacet
facet normal -3.8483784e-05 -0.395488322 -0.918470979
  outer loop
   vertex 0.329198152 0.329198152 -2.96992207
   vertex 0.671010077 0.328989923 -2.96984673
   vertex 0.275948793 0.275948793 -2.94699097
  endloop
 endfacet
facet normal -4.82153373e-05 -0.395427197 -0.918497324
  outer loop
   vertex 0.275948793 0.275948793 -2.94699097
   vertex 0.671010077 0.328989923 -2.96984673
   vertex 0.723722577 0.276277423 -2.94715595
  endloop
 endfacet
facet normal 2.33935771e-05 -0.473947972 -0.880552828
  outer loop
   vertex 0.275948793 0.275948793 -2.94699097
   vertex 0.723722577 0.276277423 -2.94715595
   vertex 0.250317842 0.250317842 -2.93319607
  endloop
 endfacet
facet normal 2.12261821e-05 -0.473917305 -0.880569339
  outer loop
   vertex 0.250317842 0.250317842 -2.93319607
   vertex 0.723722577 0.276277423 -2.94715595
   vertex 0.75 0.25 -2.93301296
  endloop
 endfacet
facet normal -3.6745565e-05 -0.541928351 -0.840424716
  outer loop
   vertex 0.250317842 0.250317842 -2.93319607
   vertex 0.75 0.25 -2.93301296
   vertex 0.208399504 0.208399504 -2.90616417
  endloop
 endfacet
facet normal -4.52785353e-05 -0.541849911 -0.840475261
  outer loop
   vertex 0.208399504 0.208399504 -2.90616417
   vertex 0.75 0.25 -2.93301296
   vertex 0.791169941 0.208830088 -2.90647316
  endloop
 endfacet
facet normal 3.40870465e-05 -0.61306721 -0.790030777
  outer loop
   vertex 0.208399504 0.208399504 -2.90616417
   vertex 0.791169941 0.208830088 -2.90647316
   vertex 0.178976685 0.178976685 -2.88333321
  endloop
 endfacet
facet normal 2.88382398e-05 -0.612999976 -0.790082932
  outer loop
   vertex 0.178976685 0.178976685 -2.88333321
   vertex 0.791169941 0.208830088 -2.90647316
   vertex 0.821393788 0.178606197 -2.88302231
  endloop
 endfacet
facet normal -3.06719667e-05 -0.673488557 -0.739197671
  outer loop
   vertex 0.178976685 0.178976685 -2.88333321
   vertex 0.821393788 0.178606197 -2.88302231
   vertex 0.148116603 0.148116603 -2.85521507
  endloop
 endfacet
facet normal -3.71305541e-05 -0.673410654 -0.739268601
  outer loop
   vertex 0.148116603 0.148116603 -2.85521507
   vertex 0.821393788 0.178606197 -2.88302231
   vertex 0.851435363 0.148564652 -2.85565853
  endloop
 endfacet
facet normal 4.11388828e-05 -0.735336959 -0.677701652
  outer loop
   vertex 0.148116603 0.148116603 -2.85521507
   vertex 0.851435363 0.148564652 -2.85565853
   vertex 0.117319077 0.117319077 -2.82180023
  endloop
 endfacet
facet normal 3.19142382e-05 -0.73523736 -0.677809715
  outer loop
   vertex 0.117319077 0.117319077 -2.82180023
   vertex 0.851435363 0.148564652 -2.85565853
   vertex 0.883022249 0.116977781 -2.82139397
  endloop
 endfacet
facet normal -2.32844814e-05 -0.786855102 -0.61713779
  outer loop
   vertex 0.117319077 0.117319077 -2.82180023
   vertex 0.883022249 0.116977781 -2.82139397
   vertex 0.903397679 0.0966023207 -2.79541588
  endloop
 endfacet
facet normal 0 -0.837644577 -0.546215653
  outer loop
   vertex 0.0966023207 0.0966023207 -2.79541588
   vertex 0.903397679 0.0966023207 -2.79541588
   vertex 0.0669872984 0.0669872984 -2.75
  endloop
 endfacet
facet normal 0 -0.837644577 -0.546215653
  outer loop
   vertex 0.0669872984 0.0669872984 -2.75
   vertex 0.903397679 0.0966023207 -2.79541588
   vertex 0.933012724 0.0669872984 -2.75
  endloop
 endfacet
facet normal 0 -0.878138423 -0.478406578
  outer loop
   vertex 0.0669872984 0.0669872984 -2.75
   vertex 0.933012724 0.0669872984 -2.75
   vertex 0.0551403314 0.0551403314 -2.72825432
  endloop
 endfacet
facet normal 0 -0.878138423 -0.478406578
  outer loop
   vertex 0.933012724 0.0669872984 -2.75
   vertex 0.944859684 0.0551403314 -2.72825432
   vertex 0.0551403314 0.0551403314 -2.72825432
  endloop
 endfacet
facet normal 0 -0.916496456 -0.400042772
  outer loop
   vertex 0.0551403314 0.0551403314 -2.72825432
   vertex 0.944859684 0.0551403314 -2.72825432
   vertex 0.969846308 0.0301536899 -2.67101002
  endloop
 endfacet
facet normal 0 -0.916496456 -0.400042772
  outer loop
   vertex 0.0551403314 0.0551403314 -2.72825432
   vertex 0.969846308 0.0301536899 -2.67101002
   vertex 0.0301536899 0.0301536899 -2.67101002
  endloop
 endfacet
facet normal 0 -0.945207894 -0.326469004
  outer loop
   vertex 0.0301536899 0.0301536899 -2.67101002
   vertex 0.969846308 0.0301536899 -2.67101002
   vertex 0.975236177 0.0247638281 -2.65540504
  endloop
 endfacet
facet normal 2.57284842e-06 -0.945159793 -0.326608211
  outer loop
   vertex 0.0301536899 0.0301536899 -2.67101002
   vertex 0.975236177 0.0247638281 -2.65540504
   vertex 0.024810344 0.024810344 -2.65554714
  endloop
 endfacet
facet normal -5.59046339e-06 -0.960830331 -0.27713728
  outer loop
   vertex 0.024810344 0.024810344 -2.65554714
   vertex 0.975236177 0.0247638281 -2.65540504
   vertex 0.0149663556 0.0149663556 -2.621418
  endloop
 endfacet
facet normal 0 -0.960872412 -0.276991457
  outer loop
   vertex 0.0149663556 0.0149663556 -2.621418
   vertex 0.975236177 0.0247638281 -2.65540504
   vertex 0.985033631 0.0149663556 -2.621418
  endloop
 endfacet
facet normal 0 -0.978048921 -0.20837529
  outer loop
   vertex 0.0149663556 0.0149663556 -2.621418
   vertex 0.985033631 0.0149663556 -2.621418
   vertex 0.0075961235 0.0075961235 -2.58682442
  endloop
 endfacet
facet normal -1.93141568e-06 -0.978037834 -0.208427489
  outer loop
   vertex 0.985033631 0.0149663556 -2.621418
   vertex 0.992394209 0.00760576315 -2.58687878
   vertex 0.0075961235 0.0075961235 -2.58682442
  endloop
 endfacet
facet normal 5.14038106e-07 -0.98619777 -0.16557166
  outer loop
   vertex 0.0075961235 0.0075961235 -2.58682442
   vertex 0.992394209 0.00760576315 -2.58687878
   vertex 0.993770242 0.00622976711 -2.5786829
  endloop
 endfacet
facet normal -0.000330276234 -0.991970122 -0.126472101
  outer loop
   vertex 0.0075961235 0.0075961235 -2.58682442
   vertex 0.993770242 0.00622976711 -2.5786829
   vertex 0.00155987497 0.00155987497 -2.539464
  endloop
 endfacet
facet normal 0 -0.992985368 -0.118237235
  outer loop
   vertex 0.00155987497 0.00155987497 -2.539464
   vertex 0.993770242 0.00622976711 -2.5786829
   vertex 0.998440146 0.00155987497 -2.539464
  endloop
 endfacet
facet normal 0 -0.999219716 -0.0394956917
  outer loop
   vertex 0.00155987497 0.00155987497 -2.539464
   vertex 0.998440146 0.00155987497 -2.539464
   vertex 0 0 -2.5
  endloop
 endfacet
facet normal 0 -0.999219716 -0.0394956917
  outer loop
   vertex 0 0 -2.5
   vertex 0.998440146 0.00155987497 -2.539464
   vertex 1 0 -2.5
  endloop
 endfacet
endsolid MATLAB_1
